REM DIRINDEX 1\2\6,1\2\7,1\2\8,1\2\9,1\3\10,1\3\11,1\4\12,1\4\13,1\4\14,1\5\15,1\5\16,1\5\17
REM DIRNAME cjc029,folder01,folder02,folder03,folder04,folder05,folder06,folder07,folder08,folder09,folder10,folder11,folder12,folder13,folder14,folder15,folder16
TITLE ""
FILE "1400_3_sec06_0568_0584.mp3" MP3
  TRACK 01 AUDIO
    TITLE "0:"
    INDEX 01 00:00:00
  TRACK 02 AUDIO
    TITLE "17:cjc029_5567"
    INDEX 01 00:00:15
  TRACK 03 AUDIO
    TITLE "0:"
    INDEX 01 00:01:22
  TRACK 04 AUDIO
    TITLE "16:cjc029_5568"
    INDEX 01 00:01:36
  TRACK 05 AUDIO
    TITLE "0:"
    INDEX 01 00:02:43
  TRACK 06 AUDIO
    TITLE "17:cjc029_5569"
    INDEX 01 00:03:25
  TRACK 07 AUDIO
    TITLE "0:"
    INDEX 01 00:04:40
  TRACK 08 AUDIO
    TITLE "16:cjc029_5570"
    INDEX 01 00:04:44
  TRACK 09 AUDIO
    TITLE "0:"
    INDEX 01 00:06:04
  TRACK 10 AUDIO
    TITLE "17:cjc029_5571"
    INDEX 01 00:06:63
  TRACK 11 AUDIO
    TITLE "0:"
    INDEX 01 00:08:01
  TRACK 12 AUDIO
    TITLE "16:cjc029_5572"
    INDEX 01 00:08:05
  TRACK 13 AUDIO
    TITLE "0:"
    INDEX 01 00:09:18
  TRACK 14 AUDIO
    TITLE "17:cjc029_5573"
    INDEX 01 00:10:04
  TRACK 15 AUDIO
    TITLE "0:"
    INDEX 01 00:11:48
  TRACK 16 AUDIO
    TITLE "16:cjc029_5574"
    INDEX 01 00:11:54
  TRACK 17 AUDIO
    TITLE "0:"
    INDEX 01 00:12:73
  TRACK 18 AUDIO
    TITLE "17:cjc029_5575"
    INDEX 01 00:13:57
  TRACK 19 AUDIO
    TITLE "0:"
    INDEX 01 00:16:08
  TRACK 20 AUDIO
    TITLE "16:cjc029_5576"
    INDEX 01 00:16:16
  TRACK 21 AUDIO
    TITLE "0:"
    INDEX 01 00:17:33
  TRACK 22 AUDIO
    TITLE "17:cjc029_5577"
    INDEX 01 00:18:19
  TRACK 23 AUDIO
    TITLE "0:"
    INDEX 01 00:19:28
  TRACK 24 AUDIO
    TITLE "16:cjc029_5578"
    INDEX 01 00:19:32
  TRACK 25 AUDIO
    TITLE "0:"
    INDEX 01 00:20:55
  TRACK 26 AUDIO
    TITLE "17:cjc029_5579"
    INDEX 01 00:21:41
  TRACK 27 AUDIO
    TITLE "0:"
    INDEX 01 00:23:65
  TRACK 28 AUDIO
    TITLE "16:cjc029_5580"
    INDEX 01 00:23:71
  TRACK 29 AUDIO
    TITLE "0:"
    INDEX 01 00:25:27
  TRACK 30 AUDIO
    TITLE "17:cjc029_5581"
    INDEX 01 00:26:11
  TRACK 31 AUDIO
    TITLE "0:"
    INDEX 01 00:27:20
  TRACK 32 AUDIO
    TITLE "16:cjc029_5582"
    INDEX 01 00:27:24
  TRACK 33 AUDIO
    TITLE "0:"
    INDEX 01 00:28:29
  TRACK 34 AUDIO
    TITLE "17:cjc029_5583"
    INDEX 01 00:29:15
  TRACK 35 AUDIO
    TITLE "0:"
    INDEX 01 00:30:14
  TRACK 36 AUDIO
    TITLE "16:cjc029_5584"
    INDEX 01 00:30:20
  TRACK 37 AUDIO
    TITLE "0:"
    INDEX 01 00:31:29
  TRACK 38 AUDIO
    TITLE "17:cjc029_5585"
    INDEX 01 00:32:13
  TRACK 39 AUDIO
    TITLE "0:"
    INDEX 01 00:33:32
  TRACK 40 AUDIO
    TITLE "16:cjc029_5586"
    INDEX 01 00:33:38
  TRACK 41 AUDIO
    TITLE "0:"
    INDEX 01 00:34:16
  TRACK 42 AUDIO
    TITLE "17:cjc029_5587"
    INDEX 01 00:35:15
  TRACK 43 AUDIO
    TITLE "0:"
    INDEX 01 00:37:01
  TRACK 44 AUDIO
    TITLE "16:cjc029_5588"
    INDEX 01 00:37:07
  TRACK 45 AUDIO
    TITLE "0:"
    INDEX 01 00:38:18
  TRACK 46 AUDIO
    TITLE "17:cjc029_5589"
    INDEX 01 00:39:02
  TRACK 47 AUDIO
    TITLE "0:"
    INDEX 01 00:40:19
  TRACK 48 AUDIO
    TITLE "16:cjc029_5590"
    INDEX 01 00:40:24
  TRACK 49 AUDIO
    TITLE "0:"
    INDEX 01 00:41:45
  TRACK 50 AUDIO
    TITLE "17:cjc029_5591"
    INDEX 01 00:42:31
  TRACK 51 AUDIO
    TITLE "0:"
    INDEX 01 00:43:54
  TRACK 52 AUDIO
    TITLE "16:cjc029_5592"
    INDEX 01 00:43:58
  TRACK 53 AUDIO
    TITLE "0:"
    INDEX 01 00:45:02
  TRACK 54 AUDIO
    TITLE "17:cjc029_5593"
    INDEX 01 00:45:63
  TRACK 55 AUDIO
    TITLE "0:"
    INDEX 01 00:47:23
  TRACK 56 AUDIO
    TITLE "16:cjc029_5594"
    INDEX 01 00:47:30
  TRACK 57 AUDIO
    TITLE "0:"
    INDEX 01 00:48:55
  TRACK 58 AUDIO
    TITLE "17:cjc029_5595"
    INDEX 01 00:49:37
  TRACK 59 AUDIO
    TITLE "0:"
    INDEX 01 00:50:37
  TRACK 60 AUDIO
    TITLE "16:cjc029_5596"
    INDEX 01 00:50:44
  TRACK 61 AUDIO
    TITLE "0:"
    INDEX 01 00:51:50
  TRACK 62 AUDIO
    TITLE "17:cjc029_5597"
    INDEX 01 00:52:34
  TRACK 63 AUDIO
    TITLE "0:"
    INDEX 01 00:53:60
  TRACK 64 AUDIO
    TITLE "16:cjc029_5598"
    INDEX 01 00:53:64
  TRACK 65 AUDIO
    TITLE "0:"
    INDEX 01 00:54:68
  TRACK 66 AUDIO
    TITLE "17:cjc029_5599"
    INDEX 01 00:55:50
  TRACK 67 AUDIO
    TITLE "0:"
    INDEX 01 00:58:01
  TRACK 68 AUDIO
    TITLE "16:cjc029_5600"
    INDEX 01 00:58:05
  TRACK 69 AUDIO
    TITLE "0:"
    INDEX 01 00:59:28
